<mxfile host="65bd71144e">
    <diagram id="fzIdW7tv3XxzzC4meYEr" name="第 1 页">
        <mxGraphModel dx="1799" dy="1175" grid="1" gridSize="10" guides="1" tooltips="1" connect="1" arrows="1" fold="1" page="1" pageScale="1" pageWidth="827" pageHeight="1169" math="0" shadow="0">
            <root>
                <mxCell id="0"/>
                <mxCell id="1" parent="0"/>
                <mxCell id="UPfyHUPsaDrkFXsMSaPx-1" value="1w 礼物&lt;br&gt;12点 凌晨" style="text;html=1;strokeColor=none;fillColor=none;align=center;verticalAlign=middle;whiteSpace=wrap;rounded=0;" parent="1" vertex="1">
                    <mxGeometry x="150" y="110" width="60" height="30" as="geometry"/>
                </mxCell>
                <mxCell id="UPfyHUPsaDrkFXsMSaPx-2" value="100w user&lt;br&gt;2w qps" style="text;html=1;strokeColor=none;fillColor=none;align=center;verticalAlign=middle;whiteSpace=wrap;rounded=0;" parent="1" vertex="1">
                    <mxGeometry x="250" y="110" width="60" height="30" as="geometry"/>
                </mxCell>
                <mxCell id="UPfyHUPsaDrkFXsMSaPx-10" value="" style="edgeStyle=orthogonalEdgeStyle;rounded=0;orthogonalLoop=1;jettySize=auto;html=1;" parent="1" source="UPfyHUPsaDrkFXsMSaPx-4" target="UPfyHUPsaDrkFXsMSaPx-9" edge="1">
                    <mxGeometry relative="1" as="geometry"/>
                </mxCell>
                <mxCell id="UPfyHUPsaDrkFXsMSaPx-17" style="edgeStyle=orthogonalEdgeStyle;rounded=0;orthogonalLoop=1;jettySize=auto;html=1;entryX=0;entryY=0.75;entryDx=0;entryDy=0;" parent="1" source="UPfyHUPsaDrkFXsMSaPx-4" target="UPfyHUPsaDrkFXsMSaPx-16" edge="1">
                    <mxGeometry relative="1" as="geometry"/>
                </mxCell>
                <mxCell id="UPfyHUPsaDrkFXsMSaPx-4" value="client" style="ellipse;whiteSpace=wrap;html=1;" parent="1" vertex="1">
                    <mxGeometry x="90" y="210" width="90" height="60" as="geometry"/>
                </mxCell>
                <mxCell id="3" value="read" style="edgeStyle=none;html=1;" edge="1" parent="1" source="UPfyHUPsaDrkFXsMSaPx-5" target="2">
                    <mxGeometry relative="1" as="geometry"/>
                </mxCell>
                <mxCell id="UPfyHUPsaDrkFXsMSaPx-5" value="API Server" style="rounded=1;whiteSpace=wrap;html=1;" parent="1" vertex="1">
                    <mxGeometry x="390" y="140" width="120" height="60" as="geometry"/>
                </mxCell>
                <mxCell id="UPfyHUPsaDrkFXsMSaPx-14" style="edgeStyle=orthogonalEdgeStyle;rounded=0;orthogonalLoop=1;jettySize=auto;html=1;entryX=0;entryY=0.5;entryDx=0;entryDy=0;" parent="1" source="UPfyHUPsaDrkFXsMSaPx-8" target="UPfyHUPsaDrkFXsMSaPx-13" edge="1">
                    <mxGeometry relative="1" as="geometry"/>
                </mxCell>
                <mxCell id="4" value="write" style="edgeLabel;html=1;align=center;verticalAlign=middle;resizable=0;points=[];" vertex="1" connectable="0" parent="UPfyHUPsaDrkFXsMSaPx-14">
                    <mxGeometry x="-0.05" y="2" relative="1" as="geometry">
                        <mxPoint as="offset"/>
                    </mxGeometry>
                </mxCell>
                <mxCell id="UPfyHUPsaDrkFXsMSaPx-20" style="edgeStyle=orthogonalEdgeStyle;rounded=0;orthogonalLoop=1;jettySize=auto;html=1;exitX=0.5;exitY=1;exitDx=0;exitDy=0;entryX=0.344;entryY=-0.061;entryDx=0;entryDy=0;entryPerimeter=0;" parent="1" source="UPfyHUPsaDrkFXsMSaPx-8" target="UPfyHUPsaDrkFXsMSaPx-18" edge="1">
                    <mxGeometry relative="1" as="geometry"/>
                </mxCell>
                <mxCell id="7" style="edgeStyle=none;html=1;exitX=1;exitY=1;exitDx=0;exitDy=0;entryX=0;entryY=0;entryDx=0;entryDy=52.5;entryPerimeter=0;" edge="1" parent="1" source="UPfyHUPsaDrkFXsMSaPx-8" target="6">
                    <mxGeometry relative="1" as="geometry">
                        <Array as="points">
                            <mxPoint x="600" y="330"/>
                        </Array>
                    </mxGeometry>
                </mxCell>
                <mxCell id="8" value="write order record" style="edgeLabel;html=1;align=center;verticalAlign=middle;resizable=0;points=[];" vertex="1" connectable="0" parent="7">
                    <mxGeometry x="0.1654" relative="1" as="geometry">
                        <mxPoint as="offset"/>
                    </mxGeometry>
                </mxCell>
                <mxCell id="UPfyHUPsaDrkFXsMSaPx-8" value="API Server" style="rounded=1;whiteSpace=wrap;html=1;" parent="1" vertex="1">
                    <mxGeometry x="390" y="240" width="120" height="60" as="geometry"/>
                </mxCell>
                <mxCell id="UPfyHUPsaDrkFXsMSaPx-11" style="edgeStyle=orthogonalEdgeStyle;rounded=0;orthogonalLoop=1;jettySize=auto;html=1;entryX=-0.017;entryY=0.65;entryDx=0;entryDy=0;entryPerimeter=0;" parent="1" source="UPfyHUPsaDrkFXsMSaPx-9" target="UPfyHUPsaDrkFXsMSaPx-5" edge="1">
                    <mxGeometry relative="1" as="geometry">
                        <mxPoint x="350" y="230" as="sourcePoint"/>
                    </mxGeometry>
                </mxCell>
                <mxCell id="UPfyHUPsaDrkFXsMSaPx-12" value="" style="edgeStyle=orthogonalEdgeStyle;rounded=0;orthogonalLoop=1;jettySize=auto;html=1;" parent="1" source="UPfyHUPsaDrkFXsMSaPx-9" target="UPfyHUPsaDrkFXsMSaPx-8" edge="1">
                    <mxGeometry relative="1" as="geometry"/>
                </mxCell>
                <mxCell id="UPfyHUPsaDrkFXsMSaPx-9" value="LVS" style="rhombus;whiteSpace=wrap;html=1;" parent="1" vertex="1">
                    <mxGeometry x="240" y="200" width="70" height="80" as="geometry"/>
                </mxCell>
                <mxCell id="5" value="" style="edgeStyle=none;html=1;" edge="1" parent="1" source="UPfyHUPsaDrkFXsMSaPx-13" target="2">
                    <mxGeometry relative="1" as="geometry"/>
                </mxCell>
                <mxCell id="UPfyHUPsaDrkFXsMSaPx-13" value="Cache（redis-master）" style="rounded=1;whiteSpace=wrap;html=1;" parent="1" vertex="1">
                    <mxGeometry x="550" y="240" width="120" height="60" as="geometry"/>
                </mxCell>
                <mxCell id="UPfyHUPsaDrkFXsMSaPx-19" style="edgeStyle=orthogonalEdgeStyle;rounded=0;orthogonalLoop=1;jettySize=auto;html=1;entryX=0;entryY=0.5;entryDx=0;entryDy=0;" parent="1" source="UPfyHUPsaDrkFXsMSaPx-16" target="UPfyHUPsaDrkFXsMSaPx-18" edge="1">
                    <mxGeometry relative="1" as="geometry"/>
                </mxCell>
                <mxCell id="UPfyHUPsaDrkFXsMSaPx-16" value="CDN" style="rounded=1;whiteSpace=wrap;html=1;" parent="1" vertex="1">
                    <mxGeometry x="260" y="380" width="120" height="60" as="geometry"/>
                </mxCell>
                <mxCell id="UPfyHUPsaDrkFXsMSaPx-18" value="Object storage" style="rounded=1;whiteSpace=wrap;html=1;" parent="1" vertex="1">
                    <mxGeometry x="480" y="380" width="120" height="60" as="geometry"/>
                </mxCell>
                <mxCell id="Vz1g1L-xIJrzRHjLyZ_t-1" value="&lt;h1&gt;User&lt;/h1&gt;&lt;p&gt;-id&lt;/p&gt;&lt;p&gt;-username&lt;/p&gt;" style="text;html=1;strokeColor=none;fillColor=none;spacing=5;spacingTop=-20;whiteSpace=wrap;overflow=hidden;rounded=0;" parent="1" vertex="1">
                    <mxGeometry x="60" y="510" width="190" height="120" as="geometry"/>
                </mxCell>
                <mxCell id="Vz1g1L-xIJrzRHjLyZ_t-2" value="&lt;h1&gt;order&lt;/h1&gt;&lt;p&gt;-id&lt;/p&gt;&lt;p&gt;-user_id&lt;/p&gt;&lt;p&gt;-gift_id&lt;/p&gt;" style="text;html=1;strokeColor=none;fillColor=none;spacing=5;spacingTop=-20;whiteSpace=wrap;overflow=hidden;rounded=0;" parent="1" vertex="1">
                    <mxGeometry x="230" y="500" width="190" height="120" as="geometry"/>
                </mxCell>
                <mxCell id="Vz1g1L-xIJrzRHjLyZ_t-3" value="&lt;h1&gt;&lt;span style=&quot;background-color: initial;&quot;&gt;Gift&lt;/span&gt;&lt;/h1&gt;&lt;h1&gt;&lt;span style=&quot;background-color: initial; font-size: 12px; font-weight: normal;&quot;&gt;-id&lt;/span&gt;&lt;br&gt;&lt;/h1&gt;&lt;p&gt;-name&lt;/p&gt;&lt;p&gt;-count&lt;/p&gt;" style="text;html=1;strokeColor=none;fillColor=none;spacing=5;spacingTop=-20;whiteSpace=wrap;overflow=hidden;rounded=0;" parent="1" vertex="1">
                    <mxGeometry x="390" y="500" width="200" height="200" as="geometry"/>
                </mxCell>
                <mxCell id="2" value="Cache（redis-slave）" style="rounded=1;whiteSpace=wrap;html=1;" vertex="1" parent="1">
                    <mxGeometry x="550" y="130" width="120" height="60" as="geometry"/>
                </mxCell>
                <mxCell id="6" value="db" style="shape=cylinder3;whiteSpace=wrap;html=1;boundedLbl=1;backgroundOutline=1;size=15;" vertex="1" parent="1">
                    <mxGeometry x="690" y="270" width="60" height="80" as="geometry"/>
                </mxCell>
            </root>
        </mxGraphModel>
    </diagram>
</mxfile>